<svg width="298" height="225" viewBox="0 0 298 225" fill="none" xmlns="http://www.w3.org/2000/svg">
<path fill-rule="evenodd" clip-rule="evenodd" d="M176.5 296.429C242.735 296.429 296.429 242.735 296.429 176.5C296.429 110.265 242.735 56.5705 176.5 56.5705C110.265 56.5705 56.5705 110.265 56.5705 176.5C56.5705 242.735 110.265 296.429 176.5 296.429ZM176.5 353C273.978 353 353 273.978 353 176.5C353 79.0217 273.978 0 176.5 0C79.0217 0 0 79.0217 0 176.5C0 273.978 79.0217 353 176.5 353Z" fill="#4FC1B5"/>
<path d="M193.79 196.135L118.087 240.382L160.158 160.764L161.537 159.312L237.24 115.065L195.169 194.684L193.79 196.135Z" fill="#F2C94C"/>
</svg>
